<?xml version="1.0" encoding="UTF-8"?>
<svg id="Capa_1" xmlns="http://www.w3.org/2000/svg" version="1.1" viewBox="0 0 708.02 299.4">
  <!-- Generator: Adobe Illustrator 30.4.0, SVG Export Plug-In . SVG Version: 2.1.4 Build 226)  -->
  <defs>
    <style>
      .st0 {
        fill: #fff;
      }
    </style>
  </defs>
  <path class="st0" d="M678.4,116.17c-14.71-14.13-34.3-22.54-54.4-26.08-12.08-2.12-24.48-2.31-36.63-.63-8.5,1.18-29.44,3.07-32.14,13.16-2.82,10.53-2.3,19.16,1.58,25.78.23.39.46.77.71,1.13,2.63,3.95,7.86,4.97,11.9,2.48,9.81-6.05,21.2-9.5,33.33-9.5,36.87,0,66.35,31.81,66.35,71s-29.89,71.38-66.35,71.38-66.7-31.81-66.7-71.38c0-13.91,3.77-26.91,10.29-37.87,1.97-3.31,1.6-7.45-.99-10.31-1.87-2.07-3.62-4.41-5.17-7.03-3.16-5.43-5.07-11.43-5.72-17.95-.03-.34-.05-.68-.05-1.02V8.58c0-4.74-3.84-8.58-8.58-8.58h-21.23c-4.74,0-8.58,3.84-8.58,8.58v87.06c0,7.24-8.52,11.34-14.01,6.62-15.71-13.51-36.64-20.43-57.77-20.43-26.03,0-52.56,10.67-70.61,33.05-3.23,4.01-9.26,4.36-12.8.63-19.23-20.26-46.4-32.9-76.46-32.9-24.04,0-46.2,7.97-63.96,21.41-2.26,1.71-3.46,4.53-3.26,7.36.74,10.34,3.87,18.01,9.36,22.83,1.02.9,2.09,1.67,3.19,2.34,3.25,1.97,7.41,1.3,10.16-1.31,11.81-11.24,27.39-18.08,44.5-18.08,36.84,0,66.32,31.81,66.32,70.97,0,7.68-1.12,15.08-3.21,22.01-1.18,3.91.69,8.14,4.36,9.93,1.27.62,2.54,1.32,3.79,2.11,1.92,1.18,3.82,2.56,5.66,4.13,5.51,4.82,9.65,10.91,12.4,18.2,2.07,5.43,3.33,11.51,3.85,18.29,17.86,19.29,42.49,28.51,66.7,28.51,3.85,0,7.69-.23,11.48-.72,0,0,.17,0,.52-.06.29-.03.66-.06,1.18-.14,1.09-.14,2.64-.37,4.62-.78.17-.06.37-.09.57-.11.55-.14,1.12-.26,1.75-.4.49-.11,1.03-.23,1.55-.37,2.33-.57,4.97-1.35,7.84-2.33,1.15-.37,2.3-.78,3.53-1.23.72-.26,1.44-.55,2.18-.83.2-.09.37-.17.6-.26,10.71-4.36,23.66-11.63,35.95-23.6,2.17-2.12,4.32-4.39,6.44-6.82,3.68-4.23,10.3-3.93,13.51.66,19.14,27.29,50.84,45.1,86.77,45.1,35.38,0,68.99-18.32,88.32-47.92,12.7-19.44,18.29-42.83,16.67-65.92-1.48-21.1-8.43-43.92-21.55-60.75-2.4-3.09-5.01-5.96-7.79-8.63ZM433.19,256.79c-31.44,0-62.85-23.69-62.85-70.23s31.41-70.2,62.85-70.2,62.85,23.26,62.85,70.2-31.44,70.23-62.85,70.23Z"/>
  <path class="st0" d="M314.97,232.02v-.06c-12.2,15.08-30.19,24.57-50.15,24.57-37.03,0-67.02-31.95-67.02-71.69,0-7.22,1.01-14.18,2.89-20.74,1.58-5.51-.66-11.52-5.59-14.45-.55-.33-1.11-.68-1.66-1.06-.89-.58-1.79-1.24-2.65-1.96-6.46-5.42-10.64-13.29-12.49-23.5-.26-1.41-.48-2.85-.65-4.33-.3-2.62-1.44-5.07-3.16-7.07-18.88-21.91-47.41-32.83-75.93-32.83C49.08,78.88,0,111.24,0,176.3v99.17c0,7.2,5.84,13.04,13.04,13.04h12.5c7.2,0,13.04-5.84,13.04-13.04v-99.17c0-42.08,29.99-63.13,59.98-63.13,16.99,0,33.83,7.07,44.99,20.04,6.2,7.21,10.41,15.95,12.6,25.18,3.11,13.01,1.04,26.21,2.71,39.31,1.38,11.07,4.35,21.86,9.08,32.01,3.34,7.21,7.5,14.02,12.37,20.3,2.42,3.17,5.08,6.17,7.84,9.06,1.36,1.38,2.77,2.74,4.18,4.07.35.29,1.59,1.18,2.65,2.02.32.26.61.52.87.75.52.46.89.84.89,1.07v-.32c.12.09.23.2.35.29,18.4,15.2,41.99,24.28,67.71,24.28,27.26,0,52.14-10.35,70.95-27.38,3.17-2.87,4.8-7.13,4.21-11.37-1-7.22-3.55-12.54-7.34-16.13-5.94-5.62-17.59-4.33-17.68-4.33Z"/>
</svg>