<?xml version="1.0" encoding="UTF-8"?>
<svg id="Capa_2" data-name="Capa 2" xmlns="http://www.w3.org/2000/svg" viewBox="0 0 359.04 356.41">
  <defs>
    <style>
      .cls-1 {
        fill: #fff;
      }
    </style>
  </defs>
  <g id="Capa_1-2" data-name="Capa 1">
    <g>
      <path class="cls-1" d="M310.28,54.57C277.53,20.93,231.78,0,181.26,0c-41.07,0-78.93,13.62-109.27,36.58-3.86,2.92-5.91,7.72-5.55,12.56,1.26,17.68,6.59,30.77,15.99,39,1.73,1.54,3.57,2.85,5.45,4,3.18,1.93,6.88,2.37,10.35,1.55,2.56-.6,5.01-1.91,7-3.81,20.19-19.19,46.79-30.87,76.02-30.87,35.28,0,66.61,17.08,87.33,43.87.07.09.14.19.2.27,16.13,20.96,25.76,47.84,25.76,77.1,0,13.12-1.91,25.78-5.48,37.6-2,6.68,1.18,13.91,7.45,16.98,2.17,1.06,4.34,2.26,6.47,3.59,3.28,2.02,6.53,4.37,9.67,7.07,8.29,7.26,14.76,16.2,19.41,26.74,17.08-27.54,26.96-60.07,26.96-94.94,0-47.46-18.54-90.65-48.76-122.73Z"/>
      <path class="cls-1" d="M308.47,302.51c-1.23,2.67-3.02,5.07-5.26,7.11-19.49,17.65-42.8,31.09-68.51,38.94-16.67,5.13-34.37,7.86-52.7,7.86-43.96,0-84.26-15.53-115.68-41.5-.21-.14-.39-.34-.6-.48v.53c0-.39-.65-1.03-1.52-1.81-.44-.39-.94-.84-1.49-1.28-1.83-1.44-3.95-2.96-4.53-3.45-2.43-2.27-4.83-4.58-7.14-6.95-4.73-4.92-9.28-10.05-13.41-15.46-8.32-10.75-15.41-22.38-21.13-34.7-7.86-16.85-12.86-34.72-15.29-53.08-.8-6.87-1.21-13.84-1.21-20.93,0-39.52,12.85-76.06,34.65-105.72,3.37,16.3,10.34,28.96,20.88,37.79,1.49,1.23,3.01,2.37,4.53,3.35.94.65,1.9,1.25,2.84,1.81,7.96,4.73,11.81,14.16,9.94,23.11,0,.02-.02.03-.02.05-.1.51-.22,1.01-.38,1.52-3.21,11.21-4.94,23.1-4.94,35.43,0,67.89,51.24,122.48,114.5,122.48,18.74,0,36.46-4.89,52.09-13.6,12.81-7.11,24.21-16.78,33.59-28.38v.1c.14,0,20.06-2.22,30.2,7.4,6.47,6.13,10.83,15.2,12.54,27.54.58,4.25-.14,8.53-1.95,12.32Z"/>
    </g>
  </g>
</svg>