<?xml version="1.0" encoding="UTF-8"?>
<!DOCTYPE svg PUBLIC "-//W3C//DTD SVG 1.1//EN" "http://www.w3.org/Graphics/SVG/1.1/DTD/svg11.dtd">
<!-- Creator: CorelDRAW -->
<svg xmlns="http://www.w3.org/2000/svg" xml:space="preserve" width="74.8872mm" height="74.8872mm" version="1.1" style="shape-rendering:geometricPrecision; text-rendering:geometricPrecision; image-rendering:optimizeQuality; fill-rule:evenodd; clip-rule:evenodd"
viewBox="0 0 7057.12 7057.12"
 xmlns:xlink="http://www.w3.org/1999/xlink"
 xmlns:xodm="http://www.corel.com/coreldraw/odm/2003"
 data-name="Capa 2">
 <defs>
  <style type="text/css">
   <![CDATA[
    .fil0 {fill:black}
    .fil1 {fill:white;fill-rule:nonzero}
   ]]>
  </style>
 </defs>
 <g id="Capa_x0020_1">
  <metadata id="CorelCorpID_0Corel-Layer"/>
  <path class="fil0" d="M3528.56 0c1948.77,0 3528.56,1579.79 3528.56,3528.56 0,1948.77 -1579.79,3528.56 -3528.56,3528.56 -1948.77,0 -3528.56,-1579.79 -3528.56,-3528.56 0,-1948.77 1579.79,-3528.56 3528.56,-3528.56z"/>
  <g id="patron-circulo.svg">
   <g id="Capa_1-2" data-name="Capa 1">
    <g>
     <path class="fil1" d="M5351.44 1836.17c-465.85,-478.51 -1116.61,-776.22 -1835.22,-776.22 -584.19,0 -1122.73,193.73 -1554.29,520.33 -54.9,41.53 -84.06,109.8 -78.94,178.65 17.92,251.49 93.74,437.68 227.45,554.75 24.61,21.91 50.78,40.54 77.53,56.9 45.23,27.44 97.86,33.71 147.22,22.04 36.41,-8.54 71.26,-27.17 99.57,-54.2 287.19,-272.97 665.56,-439.1 1081.33,-439.1 501.84,0 947.48,242.95 1242.22,624.03 0.99,1.27 1.99,2.7 2.84,3.84 229.44,298.15 366.42,680.49 366.42,1096.7 0,186.62 -27.17,366.7 -77.94,534.83 -28.45,95.02 16.78,197.86 105.97,241.53 30.86,15.08 61.73,32.14 92.03,51.07 46.66,28.73 92.88,62.16 137.55,100.56 117.92,103.27 209.95,230.44 276.09,380.37 242.95,-391.74 383.49,-854.45 383.49,-1350.46 0,-675.08 -263.71,-1289.43 -693.57,-1745.74l0.27 0.13z"/>
     <path class="fil1" d="M5325.7 5362.95c-17.5,37.98 -42.95,72.11 -74.82,101.13 -277.23,251.06 -608.8,442.23 -974.5,553.89 -237.12,72.97 -488.89,111.8 -749.62,111.8 -625.3,0 -1198.54,-220.91 -1645.47,-590.31 -2.99,-1.99 -5.55,-4.84 -8.54,-6.83l0 7.54c0,-5.55 -9.24,-14.65 -21.63,-25.75 -6.26,-5.55 -13.36,-11.95 -21.18,-18.21 -26.04,-20.49 -56.19,-42.1 -64.44,-49.08 -34.57,-32.29 -68.71,-65.15 -101.56,-98.86 -67.28,-69.98 -132.01,-142.95 -190.75,-219.9 -118.34,-152.92 -219.19,-318.35 -300.56,-493.58 -111.8,-239.68 -182.92,-493.87 -217.49,-755.03 -11.38,-97.71 -17.21,-196.86 -17.21,-297.71 0,-562.14 182.78,-1081.89 492.87,-1503.79 47.94,231.85 147.08,411.93 297.01,537.54 21.19,17.49 42.81,33.71 64.44,47.66 13.37,9.24 27.03,17.77 40.4,25.75 113.23,67.28 167.99,201.41 141.38,328.72 0,0.29 -0.28,0.42 -0.28,0.72 -1.42,7.25 -3.13,14.36 -5.4,21.62 -45.66,159.46 -70.26,328.58 -70.26,503.97 0,965.69 728.85,1742.2 1628.68,1742.2 266.56,0 518.61,-69.56 740.94,-193.45 182.22,-101.13 344.38,-238.68 477.8,-403.69l0 1.42c1.99,0 285.34,-31.58 429.58,105.26 92.03,87.2 154.05,216.21 178.37,391.73 8.26,60.46 -1.99,121.34 -27.73,175.25l-0.01 0z"/>
    </g>
   </g>
  </g>
 </g>
</svg>
